<svg xmlns="http://www.w3.org/2000/svg" width="1280" height="358.407" viewBox="0 0 338.667 94.829" xmlns:v="https://vecta.io/nano"><g transform="translate(312.353 -94.84)" fill="#f03228"><path d="M-8.745 177.002c-21.505 0-26.882-7.025-26.882-22.485V106.13c30.167 6.129 38.686 42.473 38.686 42.473h9.45V94.84h-149.128v53.763h9.45s8.566-36.475 38.662-42.509v48.387c0 15.245-4.97 22.485-26.882 22.485v11.111H-8.757z" clip-path="none" fill-rule="evenodd"/><path clip-path="none" d="M-233.269 20.339h14.624v14.624h-14.624zm110.454 110.442h14.624v14.624h-14.624z" transform="rotate(315)"/><path d="M-203.428 141.674v-4.397c27.479 0 40.681-4.385 40.681-20.621 0-17.037-12.628-21.816-43.966-21.816h-105.639v10.992h8.363c6.93 0 10.753 3.226 10.753 12.366v46.463c0 9.223-3.728 12.366-11.087 12.366h-8.029v11.004h105.866c23.823 0 44.636-1.195 44.636-23.775.036-15.054-10.143-22.581-41.577-22.581zm-40.012-34.767h15.364c3.919 0 13.035.848 13.035 13.262s-9.116 13.262-13.035 13.262h-15.364zm15.317 69.175h-15.317v-30.55h15.317c4.504 0 14.994.98 14.994 15.257s-10.49 15.293-14.994 15.293z" clip-path="none" fill-rule="evenodd"/></g></svg>